<?xml version="1.0" encoding="utf-8"?>
<!-- Generator: Adobe Illustrator 22.0.1, SVG Export Plug-In . SVG Version: 6.00 Build 0)  -->
<svg version="1.1" id="Capa_1" xmlns="http://www.w3.org/2000/svg" xmlns:xlink="http://www.w3.org/1999/xlink" x="0px" y="0px"
	 viewBox="0 0 512 512" style="enable-background:new 0 0 512 512;" xml:space="preserve">
<style type="text/css">
	.st0{enable-background:new    ;}
	.st1{clip-path:url(#SVGID_2_);enable-background:new    ;}
	.st2{fill:#6D5113;}
	.st3{fill:#715413;}
	.st4{fill:#755714;}
	.st5{fill:#785A14;}
	.st6{fill:#7C5C15;}
	.st7{fill:#805F16;}
	.st8{fill:#846216;}
	.st9{fill:#876517;}
	.st10{fill:#8B6818;}
	.st11{fill:#9D751B;}
	.st12{clip-path:url(#SVGID_4_);enable-background:new    ;}
	.st13{fill:#886517;}
	.st14{fill:#956F19;}
	.st15{clip-path:url(#SVGID_6_);enable-background:new    ;}
	.st16{fill:#694E12;}
	.st17{fill:#664C11;}
	.st18{fill:#624911;}
	.st19{fill:#795A15;}
	.st20{clip-path:url(#SVGID_8_);enable-background:new    ;}
	.st21{fill:#6E5517;}
	.st22{fill:#725818;}
	.st23{fill:#765B19;}
	.st24{fill:#7A5F1A;}
	.st25{fill:#7F621B;}
	.st26{fill:#83651C;}
	.st27{fill:#87681D;}
	.st28{fill:#8B6C1E;}
	.st29{fill:#8F6F1F;}
	.st30{fill:#947220;}
	.st31{fill:#987520;}
	.st32{fill:#9C7921;}
	.st33{clip-path:url(#SVGID_10_);enable-background:new    ;}
	.st34{clip-path:url(#SVGID_12_);enable-background:new    ;}
	.st35{fill:#715718;}
	.st36{clip-path:url(#SVGID_14_);enable-background:new    ;}
	.st37{clip-path:url(#SVGID_16_);enable-background:new    ;}
	.st38{fill:#6A5217;}
	.st39{clip-path:url(#SVGID_18_);enable-background:new    ;}
	.st40{clip-path:url(#SVGID_20_);enable-background:new    ;}
	.st41{fill:#997621;}
	.st42{clip-path:url(#SVGID_22_);enable-background:new    ;}
	.st43{clip-path:url(#SVGID_24_);enable-background:new    ;}
	.st44{fill:#B08826;}
	.st45{clip-path:url(#SVGID_26_);enable-background:new    ;}
	.st46{clip-path:url(#SVGID_28_);enable-background:new    ;}
	.st47{clip-path:url(#SVGID_30_);enable-background:new    ;}
	.st48{fill:#B71717;}
	.st49{clip-path:url(#SVGID_32_);enable-background:new    ;}
	.st50{fill:#7F1010;}
	.st51{fill:#831010;}
	.st52{fill:#881111;}
	.st53{fill:#8C1111;}
	.st54{fill:#911212;}
	.st55{fill:#951212;}
	.st56{fill:#991313;}
	.st57{fill:#9E1313;}
	.st58{fill:#A21414;}
	.st59{fill:#7B0F0F;}
	.st60{fill:#760F0F;}
	.st61{fill:#720E0E;}
</style>
<g>
	<g>
		<g class="st0">
			<g class="st0">
				<defs>
					<path id="SVGID_1_" class="st0" d="M507,356.1v0.9c0,2.4-3.8,4.4-8.6,4.4v-0.9C503.2,360.5,507,358.5,507,356.1z"/>
				</defs>
				<clipPath id="SVGID_2_">
					<use xlink:href="#SVGID_1_"  style="overflow:visible;"/>
				</clipPath>
				<g class="st1">
					<path class="st2" d="M507,356.1v0.9c0,0,0,0,0,0.1L507,356.1C507,356.1,507,356.1,507,356.1"/>
					<path class="st3" d="M507,356.2v0.9c0,0.1,0,0.3,0,0.4v-0.9C507,356.4,507,356.3,507,356.2"/>
					<path class="st4" d="M506.9,356.5v0.9c0,0.1-0.1,0.2-0.1,0.4v-0.9C506.9,356.8,506.9,356.7,506.9,356.5"/>
					<path class="st5" d="M506.8,356.9v0.9c0,0.1-0.1,0.2-0.2,0.4v-0.9C506.7,357.2,506.8,357,506.8,356.9"/>
					<path class="st6" d="M506.7,357.3v0.9c-0.1,0.1-0.1,0.2-0.2,0.4v-0.9C506.5,357.5,506.6,357.4,506.7,357.3"/>
					<path class="st7" d="M506.4,357.6v0.9c-0.1,0.1-0.2,0.3-0.3,0.4V358C506.2,357.9,506.3,357.8,506.4,357.6"/>
					<path class="st8" d="M506.1,358v0.9c-0.1,0.1-0.3,0.3-0.4,0.4v-0.9C505.8,358.3,506,358.2,506.1,358"/>
					<path class="st9" d="M505.7,358.4v0.9c-0.2,0.2-0.4,0.3-0.7,0.5v-0.9C505.2,358.8,505.5,358.6,505.7,358.4"/>
					<path class="st10" d="M505,358.9v0.9c-1,0.6-2.2,1-3.6,1.3v-0.9C502.8,360,504,359.5,505,358.9"/>
					<path class="st9" d="M501.3,360.2v0.9c-0.4,0.1-0.7,0.1-1.1,0.2v-0.9C500.6,360.4,501,360.3,501.3,360.2"/>
					<path class="st8" d="M500.2,360.4v0.9c-0.3,0-0.6,0.1-0.9,0.1v-0.9C499.6,360.5,499.9,360.4,500.2,360.4"/>
					<path class="st7" d="M499.3,360.5v0.9c-0.3,0-0.5,0-0.8,0v-0.9C498.8,360.5,499,360.5,499.3,360.5"/>
					<path class="st6" d="M498.5,360.5v0.9c0,0,0,0-0.1,0L498.5,360.5C498.4,360.5,498.5,360.5,498.5,360.5"/>
				</g>
			</g>
			<g>
				<path class="st11" d="M507.6,228.4c12.8,24.8-6.4,71.5-6.4,78.7c0,5.7,4.1,36.7,5.8,48.7c0.3,2.5-3.6,4.7-8.5,4.7h-33.6
					l11.8-116.1L507.6,228.4z"/>
			</g>
			<g class="st0">
				<defs>
					<path id="SVGID_3_" class="st0" d="M512,250.2v0.9c0,23.9-10.8,51.6-10.8,56.9v-0.9C501.2,301.8,512,274.1,512,250.2z"/>
				</defs>
				<clipPath id="SVGID_4_">
					<use xlink:href="#SVGID_3_"  style="overflow:visible;"/>
				</clipPath>
				<g class="st12">
					<path class="st2" d="M512,250.2v0.9c0,0.7,0,1.3,0,2v-0.9C512,251.5,512,250.8,512,250.2"/>
					<path class="st3" d="M512,252.2v0.9c-0.2,6.8-1.1,13.8-2.4,20.4v-0.9C510.8,265.9,511.8,258.9,512,252.2"/>
					<path class="st4" d="M509.6,272.6v0.9c-2.7,14.1-7,26.8-8.1,32.4V305C502.6,299.4,506.8,286.7,509.6,272.6"/>
					<path class="st3" d="M501.5,305v0.9c-0.2,0.8-0.3,1.5-0.3,2V307C501.2,306.5,501.3,305.8,501.5,305"/>
					<path class="st2" d="M501.2,307v0.9c0,0.1,0,0.1,0,0.2v-0.9C501.2,307.1,501.2,307,501.2,307"/>
				</g>
			</g>
			<g>
				<rect x="464.9" y="360.5" class="st13" width="33.6" height="0.9"/>
			</g>
		</g>
	</g>
</g>
<g>
	<g>
		<g class="st0">
			<g>
				<polygon class="st14" points="282.2,283.6 282.2,284.5 221.3,321.6 221.3,320.8 				"/>
			</g>
			<g class="st0">
				<defs>
					<path id="SVGID_5_" class="st0" d="M147.6,357.6v-0.9c0,1.8,2.7,3.3,6.5,3.3v0.9C150.4,361,147.6,359.4,147.6,357.6z"/>
				</defs>
				<clipPath id="SVGID_6_">
					<use xlink:href="#SVGID_5_"  style="overflow:visible;"/>
				</clipPath>
				<g class="st15">
					<path class="st6" d="M154.1,360.1v0.9c-0.2,0-0.4,0-0.6,0v-0.9C153.8,360.1,153.9,360.1,154.1,360.1"/>
					<path class="st5" d="M153.6,360.1v0.9c-0.2,0-0.4,0-0.6,0v-0.9C153.2,360.1,153.4,360.1,153.6,360.1"/>
					<path class="st4" d="M153,360.1v0.9c-0.2,0-0.4,0-0.5-0.1V360C152.7,360.1,152.8,360.1,153,360.1"/>
					<path class="st3" d="M152.5,360v0.9c-0.2,0-0.4-0.1-0.5-0.1v-0.9C152.1,360,152.3,360,152.5,360"/>
					<path class="st2" d="M151.9,359.9v0.9c-0.2,0-0.4-0.1-0.5-0.1v-0.9C151.6,359.9,151.8,359.9,151.9,359.9"/>
					<path class="st16" d="M151.4,359.8v0.9c-0.2,0-0.4-0.1-0.6-0.2v-0.9C151,359.7,151.2,359.8,151.4,359.8"/>
					<path class="st17" d="M150.8,359.7v0.9c-0.2-0.1-0.5-0.2-0.7-0.2v-0.9C150.3,359.5,150.6,359.6,150.8,359.7"/>
					<path class="st18" d="M150.1,359.4v0.9c-1.5-0.6-2.5-1.6-2.5-2.6v-0.9C147.6,357.8,148.6,358.8,150.1,359.4"/>
				</g>
			</g>
			<g>
				<path class="st11" d="M233,259.2l49.1,24.5l-60.9,37.1l-13.4,39.3h-53.8c-4.8,0-8-2.6-5.8-4.8l10.4-10.7
					c1.3-1.4,2.2-2.8,2.5-4.4l3.9-16.8c0.4-1.8,1.5-3.5,3.2-5L233,259.2z"/>
			</g>
			<g>
				<polygon class="st19" points="221.3,320.8 221.3,321.6 207.9,361 207.9,360.1 				"/>
			</g>
			<g>
				<rect x="154.1" y="360.1" class="st13" width="53.8" height="0.9"/>
			</g>
		</g>
	</g>
</g>
<g>
	<g>
		<g class="st0">
			<g class="st0">
				<defs>
					<path id="SVGID_7_" class="st0" d="M83.4,284.8l0-0.9c0-11.3,2.2-21.9,3.8-28.2c0.9-3.5,5.2-6.3,11.4-7.8
						c16.7-3.9,36.4-10.6,47.8-14.6c3.8-1.3,8.2-2,12.6-2c2.7,0,5.4,0.3,8,0.8c7.6,1.5,13,5.1,13.9,9.3v0.9c-1-4.2-6.3-7.7-13.9-9.3
						c-2.6-0.5-5.3-0.8-8-0.8c-4.4,0-8.8,0.7-12.6,2c-11.4,4.1-31.1,10.7-47.8,14.6c-6.1,1.4-10.5,4.3-11.4,7.8
						C85.6,262.9,83.4,273.5,83.4,284.8z"/>
				</defs>
				<clipPath id="SVGID_8_">
					<use xlink:href="#SVGID_7_"  style="overflow:visible;"/>
				</clipPath>
				<g class="st20">
					<path class="st21" d="M180.8,241.4v0.9c-0.7-3-3.7-5.8-8.3-7.6v-0.9C177.1,235.6,180.1,238.3,180.8,241.4"/>
					<path class="st22" d="M172.5,233.8v0.9c-0.7-0.3-1.5-0.6-2.4-0.8V233C171,233.2,171.8,233.5,172.5,233.8"/>
					<path class="st23" d="M170.2,233v0.9c-0.7-0.2-1.3-0.4-2-0.6v-0.9C168.9,232.6,169.5,232.8,170.2,233"/>
					<path class="st24" d="M168.2,232.4v0.9c-0.4-0.1-0.9-0.2-1.3-0.3c-0.2,0-0.4-0.1-0.6-0.1V232c0.2,0,0.4,0.1,0.6,0.1
						C167.3,232.2,167.7,232.3,168.2,232.4"/>
					<path class="st25" d="M166.3,232v0.9c-0.6-0.1-1.2-0.2-1.8-0.3v-0.9C165,231.8,165.6,231.9,166.3,232"/>
					<path class="st26" d="M164.4,231.7v0.9c-0.6-0.1-1.2-0.1-1.8-0.2v-0.9C163.2,231.6,163.8,231.6,164.4,231.7"/>
					<path class="st27" d="M162.6,231.5v0.9c-0.6-0.1-1.2-0.1-1.9-0.1v-0.9C161.3,231.4,162,231.5,162.6,231.5"/>
					<path class="st28" d="M160.7,231.4v0.9c-0.6,0-1.2,0-1.8,0c0,0-0.1,0-0.1,0v-0.9c0,0,0.1,0,0.1,0
						C159.5,231.4,160.1,231.4,160.7,231.4"/>
					<path class="st29" d="M158.8,231.4v0.9c-0.7,0-1.4,0-2.1,0.1v-0.9C157.4,231.4,158.1,231.4,158.8,231.4"/>
					<path class="st30" d="M156.7,231.4v0.9c-0.8,0-1.6,0.1-2.3,0.2v-0.9C155.1,231.5,155.9,231.5,156.7,231.4"/>
					<path class="st31" d="M154.3,231.6v0.9c-1,0.1-2,0.3-2.9,0.4V232C152.4,231.9,153.4,231.7,154.3,231.6"/>
					<path class="st32" d="M151.4,232v0.9c-1.8,0.3-3.5,0.8-5.1,1.3c-11.4,4.1-31.1,10.7-47.8,14.6c-2.8,0.7-5.2,1.6-7.1,2.8v-0.9
						c1.9-1.2,4.3-2.1,7.1-2.8c16.7-3.9,36.4-10.6,47.8-14.6C147.9,232.8,149.6,232.4,151.4,232"/>
					<path class="st31" d="M91.4,250.8v0.9c-0.6,0.3-1.1,0.7-1.6,1.1v-0.9C90.3,251.5,90.9,251.1,91.4,250.8"/>
					<path class="st30" d="M89.9,251.9v0.9c-0.4,0.3-0.7,0.6-1,0.9v-0.9C89.2,252.5,89.5,252.1,89.9,251.9"/>
					<path class="st29" d="M88.9,252.8v0.9c-0.3,0.3-0.5,0.6-0.7,0.8v-0.9C88.4,253.3,88.6,253,88.9,252.8"/>
					<path class="st28" d="M88.2,253.6v0.9c-0.2,0.3-0.4,0.5-0.5,0.8v-0.9C87.8,254.1,88,253.9,88.2,253.6"/>
					<path class="st27" d="M87.7,254.4v0.9c-0.1,0.3-0.3,0.5-0.4,0.8v-0.9C87.4,254.9,87.5,254.7,87.7,254.4"/>
					<path class="st26" d="M87.3,255.2v0.9c-0.1,0.2-0.1,0.4-0.2,0.5c-0.5,2-1.1,4.4-1.6,7.2v-0.9c0.5-2.7,1.1-5.2,1.6-7.2
						C87.2,255.6,87.3,255.4,87.3,255.2"/>
					<path class="st25" d="M85.6,262.9v0.9c-1,5.4-2,12-2.1,18.9v-0.9C83.6,274.9,84.5,268.3,85.6,262.9"/>
					<path class="st24" d="M83.4,281.8v0.9c0,0.7,0,1.4,0,2.1v-0.9C83.4,283.2,83.4,282.5,83.4,281.8"/>
				</g>
			</g>
			<g class="st0">
				<defs>
					<path id="SVGID_9_" class="st0" d="M399.7,294.1v0.9c-15.1,2.1-29.6,3-43.3,3c-66.5,0-111.4-19.7-113.8-20.7v-0.9
						c2.4,1,47.3,20.7,113.8,20.7C370.1,297.1,384.6,296.3,399.7,294.1z"/>
				</defs>
				<clipPath id="SVGID_10_">
					<use xlink:href="#SVGID_9_"  style="overflow:visible;"/>
				</clipPath>
				<g class="st33">
					<path class="st31" d="M399.7,294.1v0.9c-3.2,0.5-6.4,0.9-9.6,1.2v-0.9C393.3,295,396.5,294.6,399.7,294.1"/>
					<path class="st30" d="M390.1,295.3v0.9c-5.9,0.6-11.6,1.1-17.3,1.4v-0.9C378.5,296.4,384.2,296,390.1,295.3"/>
					<path class="st29" d="M372.8,296.7v0.9c-5.2,0.3-10.4,0.4-15.4,0.4v-0.9C362.4,297.1,367.6,297,372.8,296.7"/>
					<path class="st28" d="M357.4,297.1v0.9c-0.3,0-0.7,0-1,0c-4.9,0-9.6-0.1-14.3-0.3v-0.9c4.6,0.2,9.4,0.3,14.3,0.3
						C356.7,297.1,357.1,297.1,357.4,297.1"/>
					<path class="st27" d="M342.1,296.8v0.9c-5.1-0.2-10.1-0.5-14.9-1v-0.9C332,296.3,337,296.6,342.1,296.8"/>
					<path class="st26" d="M327.2,295.9v0.9c-5.2-0.5-10.2-1-15-1.7v-0.9C317,294.9,322,295.4,327.2,295.9"/>
					<path class="st25" d="M312.2,294.2v0.9c-5.5-0.7-10.7-1.6-15.6-2.5v-0.9C301.5,292.7,306.7,293.5,312.2,294.2"/>
					<path class="st24" d="M296.6,291.8v0.9c-6-1.1-11.5-2.3-16.6-3.5v-0.9C285.1,289.5,290.7,290.7,296.6,291.8"/>
					<path class="st23" d="M280,288.3v0.9c-6.8-1.6-12.7-3.3-17.8-4.8v-0.9C267.3,285,273.3,286.7,280,288.3"/>
					<path class="st22" d="M262.3,283.5v0.9c-8.1-2.5-13.9-4.7-17.1-6v-0.9C248.3,278.8,254.1,281,262.3,283.5"/>
					<path class="st21" d="M245.2,277.5v0.9c-1.4-0.6-2.3-1-2.6-1.1v-0.9C242.9,276.5,243.8,276.9,245.2,277.5"/>
				</g>
			</g>
			<g class="st0">
				<defs>
					<path id="SVGID_11_" class="st0" d="M508.7,235.4v0.9c0,25.2-35.3,55.4-35.3,67.4v-0.9C473.4,290.8,508.7,260.6,508.7,235.4z"
						/>
				</defs>
				<clipPath id="SVGID_12_">
					<use xlink:href="#SVGID_11_"  style="overflow:visible;"/>
				</clipPath>
				<g class="st34">
					<path class="st24" d="M508.7,235.4v0.9c0,0.2,0,0.4,0,0.6V236C508.7,235.8,508.7,235.6,508.7,235.4"/>
					<path class="st25" d="M508.7,236v0.9c0,1.7-0.2,3.5-0.6,5.3v-0.9C508.5,239.6,508.7,237.8,508.7,236"/>
					<path class="st26" d="M508.1,241.3v0.9c-0.4,2.2-1.1,4.3-1.9,6.5v-0.9C507.1,245.7,507.7,243.5,508.1,241.3"/>
					<path class="st27" d="M506.3,247.9v0.9c-1.1,3-2.5,6-4.1,9v-0.9C503.8,253.9,505.2,250.9,506.3,247.9"/>
					<path class="st28" d="M502.2,256.9v0.9c-3.3,6.1-7.4,12.1-11.5,17.8v-0.9C494.7,269,498.9,263,502.2,256.9"/>
					<path class="st29" d="M490.6,274.7v0.9c-2.9,3.9-5.7,7.7-8.3,11.2v-0.9C484.9,282.4,487.7,278.6,490.6,274.7"/>
					<path class="st28" d="M482.4,285.9v0.9c-2.7,3.7-5.1,7.2-6.7,10.2V296C477.3,293.1,479.6,289.6,482.4,285.9"/>
					<path class="st27" d="M475.7,296v0.9c-0.6,1.2-1.2,2.3-1.5,3.3v-0.9C474.5,298.3,475,297.2,475.7,296"/>
					<path class="st26" d="M474.1,299.3v0.9c-0.3,0.7-0.4,1.3-0.6,2v-0.9C473.7,300.7,473.9,300,474.1,299.3"/>
					<path class="st25" d="M473.6,301.3v0.9c-0.1,0.5-0.2,0.9-0.2,1.4v-0.9C473.4,302.2,473.5,301.8,473.6,301.3"/>
					<path class="st24" d="M473.4,302.7v0.9c0,0.1,0,0.1,0,0.2v-0.9C473.4,302.8,473.4,302.7,473.4,302.7"/>
				</g>
			</g>
			<g>
				<polygon class="st35" points="422.8,307.7 422.8,308.5 399.7,295 399.7,294.1 				"/>
			</g>
			<g class="st0">
				<defs>
					<path id="SVGID_13_" class="st0" d="M427.1,313.5v0.9c0-2.1-1.5-4.2-4.3-5.8v-0.9C425.6,309.3,427.1,311.3,427.1,313.5z"/>
				</defs>
				<clipPath id="SVGID_14_">
					<use xlink:href="#SVGID_13_"  style="overflow:visible;"/>
				</clipPath>
				<g class="st36">
					<path class="st21" d="M427.1,313.5v0.9c0-2.1-1.5-4.2-4.3-5.8v-0.9C425.6,309.3,427.1,311.3,427.1,313.5"/>
				</g>
			</g>
			<g class="st0">
				<defs>
					<path id="SVGID_15_" class="st0" d="M140.8,327v0.9c0,1.7-2,3.4-5.3,4.1c-6,1.3-11.9,1.9-17.6,1.9c-7.6,0-14.9-1.1-21.5-3.4
						c-35.1-11.9-44.7-56.9-44.6-74.1v-0.9c-0.1,17.2,9.5,62.3,44.6,74.1c6.7,2.2,13.9,3.4,21.5,3.4c5.7,0,11.7-0.6,17.6-1.9
						C138.8,330.4,140.8,328.8,140.8,327z"/>
				</defs>
				<clipPath id="SVGID_16_">
					<use xlink:href="#SVGID_15_"  style="overflow:visible;"/>
				</clipPath>
				<g class="st37">
					<path class="st24" d="M140.8,327v0.9c0,0,0,0,0,0.1L140.8,327C140.8,327.1,140.8,327,140.8,327"/>
					<path class="st25" d="M140.8,327.1v0.9c0,0.1,0,0.3,0,0.4v-0.9C140.8,327.3,140.8,327.2,140.8,327.1"/>
					<path class="st26" d="M140.7,327.5v0.9c0,0.1-0.1,0.2-0.1,0.4v-0.9C140.7,327.7,140.7,327.6,140.7,327.5"/>
					<path class="st27" d="M140.6,327.8v0.9c0,0.1-0.1,0.2-0.2,0.4v-0.9C140.5,328.1,140.6,328,140.6,327.8"/>
					<path class="st28" d="M140.5,328.2v0.9c-0.1,0.1-0.1,0.2-0.2,0.4v-0.9C140.3,328.5,140.4,328.3,140.5,328.2"/>
					<path class="st29" d="M140.2,328.6v0.9c-0.1,0.1-0.2,0.3-0.3,0.4V329C140,328.8,140.1,328.7,140.2,328.6"/>
					<path class="st30" d="M139.9,329v0.9c-0.1,0.1-0.3,0.3-0.5,0.4v-0.9C139.6,329.2,139.8,329.1,139.9,329"/>
					<path class="st31" d="M139.5,329.4v0.9c-0.2,0.2-0.4,0.3-0.7,0.5v-0.9C139,329.7,139.3,329.5,139.5,329.4"/>
					<path class="st32" d="M138.8,329.9v0.9c-0.9,0.5-2,1-3.3,1.2c-0.8,0.2-1.7,0.3-2.5,0.5v-0.9c0.8-0.2,1.7-0.3,2.5-0.5
						C136.8,330.8,137.9,330.4,138.8,329.9"/>
					<path class="st31" d="M133,331.6v0.9c-2.2,0.4-4.3,0.7-6.5,0.9v-0.9C128.7,332.3,130.8,332,133,331.6"/>
					<path class="st30" d="M126.5,332.5v0.9c-1.5,0.2-3.1,0.3-4.6,0.4v-0.9C123.4,332.8,125,332.7,126.5,332.5"/>
					<path class="st29" d="M121.9,332.9v0.9c-1.3,0.1-2.6,0.1-3.8,0.1V333C119.4,333,120.6,333,121.9,332.9"/>
					<path class="st28" d="M118.1,333v0.9c-0.1,0-0.2,0-0.2,0c-1.1,0-2.1,0-3.2-0.1V333c1.1,0,2.1,0.1,3.2,0.1
						C117.9,333,118,333,118.1,333"/>
					<path class="st27" d="M114.7,333v0.9c-1.1,0-2.2-0.1-3.2-0.2v-0.9C112.5,332.8,113.6,332.9,114.7,333"/>
					<path class="st26" d="M111.5,332.7v0.9c-1.1-0.1-2.1-0.2-3.1-0.3v-0.9C109.4,332.5,110.4,332.7,111.5,332.7"/>
					<path class="st25" d="M108.3,332.4v0.9c-1.1-0.1-2.1-0.3-3.2-0.5v-0.9C106.2,332.1,107.2,332.3,108.3,332.4"/>
					<path class="st24" d="M105.1,331.9v0.9c-1.1-0.2-2.3-0.4-3.4-0.7v-0.9C102.9,331.5,104,331.7,105.1,331.9"/>
					<path class="st23" d="M101.7,331.2v0.9c-1.3-0.3-2.6-0.7-3.8-1v-0.9C99.2,330.5,100.5,330.9,101.7,331.2"/>
					<path class="st22" d="M97.9,330.2v0.9c-0.5-0.2-1.1-0.3-1.6-0.5c-1.1-0.4-2.2-0.8-3.2-1.2v-0.9c1,0.4,2.1,0.8,3.2,1.2
						C96.9,329.8,97.4,330,97.9,330.2"/>
					<path class="st21" d="M93.1,328.4v0.9c-32.5-13.4-41.5-56.2-41.4-72.9v-0.9C51.6,272.2,60.6,315,93.1,328.4"/>
				</g>
			</g>
			<g>
				<polygon class="st38" points="203.6,340 203.6,340.8 180.8,242.2 180.8,241.4 				"/>
			</g>
			<g class="st0">
				<defs>
					<path id="SVGID_17_" class="st0" d="M203.7,341l0,0.9c0-0.3,0-0.7-0.1-1V340C203.7,340.3,203.7,340.7,203.7,341z"/>
				</defs>
				<clipPath id="SVGID_18_">
					<use xlink:href="#SVGID_17_"  style="overflow:visible;"/>
				</clipPath>
				<g class="st39">
					<path class="st21" d="M203.7,341v0.9c0-0.3,0-0.7-0.1-1V340C203.7,340.3,203.7,340.7,203.7,341"/>
				</g>
			</g>
			<g class="st0">
				<defs>
					<path id="SVGID_19_" class="st0" d="M242.6,355.7v0.9c0,2.4-3.8,4.4-8.6,4.4v-0.9C238.8,360.1,242.6,358.1,242.6,355.7z"/>
				</defs>
				<clipPath id="SVGID_20_">
					<use xlink:href="#SVGID_19_"  style="overflow:visible;"/>
				</clipPath>
				<g class="st40">
					<path class="st24" d="M242.6,355.7v0.9c0,0,0,0,0,0.1L242.6,355.7C242.6,355.7,242.6,355.7,242.6,355.7"/>
					<path class="st25" d="M242.6,355.7v0.9c0,0.1,0,0.3,0,0.4v-0.9C242.6,356,242.6,355.8,242.6,355.7"/>
					<path class="st26" d="M242.6,356.1v0.9c0,0.1-0.1,0.2-0.1,0.4v-0.9C242.5,356.3,242.6,356.2,242.6,356.1"/>
					<path class="st27" d="M242.5,356.5v0.9c0,0.1-0.1,0.2-0.2,0.4v-0.9C242.4,356.7,242.4,356.6,242.5,356.5"/>
					<path class="st28" d="M242.3,356.8v0.9c-0.1,0.1-0.1,0.2-0.2,0.4v-0.9C242.2,357.1,242.3,357,242.3,356.8"/>
					<path class="st29" d="M242.1,357.2v0.9c-0.1,0.1-0.2,0.3-0.3,0.4v-0.9C241.9,357.5,242,357.3,242.1,357.2"/>
					<path class="st30" d="M241.8,357.6v0.9c-0.1,0.1-0.3,0.3-0.4,0.4V358C241.5,357.9,241.6,357.7,241.8,357.6"/>
					<path class="st31" d="M241.3,358v0.9c-0.2,0.2-0.4,0.3-0.7,0.5v-0.9C240.9,358.3,241.1,358.2,241.3,358"/>
					<path class="st32" d="M240.6,358.5v0.9c-1,0.6-2.2,1-3.6,1.3v-0.9C238.4,359.5,239.7,359.1,240.6,358.5"/>
					<path class="st31" d="M237,359.8v0.9c-0.4,0.1-0.7,0.1-1.1,0.2V360C236.3,359.9,236.6,359.9,237,359.8"/>
					<path class="st30" d="M235.9,360v0.9c-0.3,0-0.6,0.1-0.9,0.1V360C235.3,360,235.6,360,235.9,360"/>
					<path class="st29" d="M235,360v0.9c-0.3,0-0.5,0-0.8,0v-0.9C234.4,360.1,234.7,360,235,360"/>
					<path class="st28" d="M234.1,360.1v0.9c0,0,0,0-0.1,0L234.1,360.1C234.1,360.1,234.1,360.1,234.1,360.1"/>
				</g>
			</g>
			<g>
				<rect x="421.1" y="360.1" class="st41" width="52.3" height="0.9"/>
			</g>
			<g class="st0">
				<defs>
					<path id="SVGID_21_" class="st0" d="M416,358.3v-0.9c0,1.4,2.2,2.6,5.1,2.6v0.9C418.2,360.9,416,359.7,416,358.3z"/>
				</defs>
				<clipPath id="SVGID_22_">
					<use xlink:href="#SVGID_21_"  style="overflow:visible;"/>
				</clipPath>
				<g class="st42">
					<path class="st28" d="M421.1,360.1v0.9c-0.1,0-0.3,0-0.4,0V360C420.8,360.1,421,360.1,421.1,360.1"/>
					<path class="st27" d="M420.7,360v0.9c-0.1,0-0.3,0-0.4,0V360C420.4,360,420.5,360,420.7,360"/>
					<path class="st26" d="M420.2,360v0.9c-0.1,0-0.3,0-0.4,0V360C420,360,420.1,360,420.2,360"/>
					<path class="st25" d="M419.8,360v0.9c-0.1,0-0.3,0-0.4-0.1v-0.9C419.5,359.9,419.7,360,419.8,360"/>
					<path class="st24" d="M419.4,359.9v0.9c-0.1,0-0.3-0.1-0.4-0.1v-0.9C419.1,359.8,419.2,359.9,419.4,359.9"/>
					<path class="st23" d="M419,359.8v0.9c-0.2,0-0.3-0.1-0.5-0.1v-0.9C418.6,359.7,418.8,359.8,419,359.8"/>
					<path class="st22" d="M418.5,359.7v0.9c-0.2-0.1-0.4-0.1-0.5-0.2v-0.9C418.1,359.6,418.3,359.6,418.5,359.7"/>
					<path class="st21" d="M418,359.5v0.9c-1.2-0.5-2-1.3-2-2.1v-0.9C416,358.2,416.7,359,418,359.5"/>
				</g>
			</g>
			<g class="st0">
				<defs>
					<path id="SVGID_23_" class="st0" d="M191.4,358.3l0-0.9c0,1.4,2.2,2.6,5.1,2.6v0.9C193.5,360.9,191.4,359.7,191.4,358.3z"/>
				</defs>
				<clipPath id="SVGID_24_">
					<use xlink:href="#SVGID_23_"  style="overflow:visible;"/>
				</clipPath>
				<g class="st43">
					<path class="st28" d="M196.5,360.1v0.9c-0.1,0-0.3,0-0.4,0V360C196.2,360.1,196.3,360.1,196.5,360.1"/>
					<path class="st27" d="M196.1,360v0.9c-0.1,0-0.3,0-0.4,0V360C195.8,360,195.9,360,196.1,360"/>
					<path class="st26" d="M195.6,360v0.9c-0.1,0-0.3,0-0.4,0V360C195.3,360,195.5,360,195.6,360"/>
					<path class="st25" d="M195.2,360v0.9c-0.1,0-0.3,0-0.4-0.1v-0.9C194.9,359.9,195,360,195.2,360"/>
					<path class="st24" d="M194.8,359.9v0.9c-0.1,0-0.3-0.1-0.4-0.1v-0.9C194.5,359.8,194.6,359.9,194.8,359.9"/>
					<path class="st23" d="M194.3,359.8v0.9c-0.2,0-0.3-0.1-0.5-0.1v-0.9C194,359.7,194.2,359.8,194.3,359.8"/>
					<path class="st22" d="M193.9,359.7v0.9c-0.2-0.1-0.4-0.1-0.5-0.2v-0.9C193.5,359.6,193.7,359.6,193.9,359.7"/>
					<path class="st21" d="M193.3,359.5v0.9c-1.2-0.5-2-1.3-2-2.1v-0.9C191.4,358.2,192.1,359,193.3,359.5"/>
				</g>
			</g>
			<g>
				<path class="st44" d="M216.5,159.1c12.6,0,29.8,1.6,51.8,7.3c25.6,6.6,42.7,8.8,59.8,8.8c17.1,0,34.2-2.2,59.8-4.4
					c3-0.3,5.9-0.4,8.9-0.4c49.1,0,102.7,32.7,110.7,57.6c8.6,26.4-34.2,61.6-34.2,74.8v57.2h-52.3c-3.6,0-6.1-1.9-4.8-3.6l9.6-12.4
					c0.8-1,1.2-2.1,1.2-3.2v-27.3c0-2.1-1.5-4.2-4.3-5.8l-23.1-13.5c-15.1,2.1-29.6,3-43.3,3c-66.5,0-111.4-19.7-113.8-20.7v79.2
					c0,2.4-3.8,4.4-8.6,4.4h-37.6c-3.7,0-6.2-2-4.7-3.7l10.3-11.6c1.3-1.5,1.8-3.1,1.4-4.7l-22.8-98.6c-1-4.2-6.3-7.7-13.9-9.3
					c-2.6-0.5-5.3-0.8-8-0.8c-4.4,0-8.8,0.7-12.6,2c-11.4,4.1-31.1,10.7-47.8,14.6c-6.1,1.4-10.5,4.3-11.4,7.8
					c-3,11.9-8.1,39.6,3.5,57.3c4.4,4.1,9.4,7.3,15.1,9.3c3.9,1.3,7.8,2,12.1,2c3.5,0,7.1-0.4,11.1-1.3c1.1-0.2,2.2-0.3,3.3-0.3
					c3.3,0,6.5,1,7.9,2.7c1.8,2.2-0.2,4.8-4.6,5.8c-6,1.3-11.9,1.9-17.6,1.9c-7.6,0-14.9-1.1-21.5-3.4
					c-35.1-11.9-44.7-56.9-44.6-74.1c0-4.1,3.8-14.1,4.4-16c7.3-22.5,35.3-65.8,54-70.4c23-5.6,55.6-2.7,81.2-7.2
					C191.8,161.8,199.7,159.1,216.5,159.1z"/>
			</g>
			<g>
				<rect x="196.5" y="360.1" class="st41" width="37.6" height="0.9"/>
			</g>
		</g>
	</g>
</g>
<g>
	<g>
		<g class="st0">
			<g>
				<path class="st11" d="M259.6,264.2c1.9,0,3.8,0.2,5.7,0.5c23.6,4.3,61.7,10.2,94.7,10.2c0.5,0,1,0,1.4,0c4.8,0,9.3,0.9,12.6,2.5
					l25.7,13.2c-15.1,2.1-29.6,3-43.3,3c-66.5,0-111.4-19.7-113.8-20.7C242.6,267.9,250.6,264.2,259.6,264.2z"/>
			</g>
			<g class="st0">
				<defs>
					<path id="SVGID_25_" class="st0" d="M399.7,290.7v0.9c-15.1,2.1-29.6,3-43.3,3c-66.5,0-111.4-19.7-113.8-20.7l0-0.9
						c2.4,1,47.3,20.7,113.8,20.7C370.1,293.7,384.6,292.8,399.7,290.7z"/>
				</defs>
				<clipPath id="SVGID_26_">
					<use xlink:href="#SVGID_25_"  style="overflow:visible;"/>
				</clipPath>
				<g class="st45">
					<path class="st9" d="M399.7,290.7v0.9c-3.2,0.5-6.4,0.9-9.6,1.2v-0.9C393.3,291.6,396.5,291.2,399.7,290.7"/>
					<path class="st8" d="M390.1,291.9v0.9c-5.9,0.6-11.6,1.1-17.3,1.4v-0.9C378.5,293,384.2,292.5,390.1,291.9"/>
					<path class="st7" d="M372.8,293.3v0.9c-5.2,0.3-10.4,0.4-15.4,0.4v-0.9C362.4,293.7,367.6,293.6,372.8,293.3"/>
					<path class="st6" d="M357.4,293.7v0.9c-0.3,0-0.7,0-1,0c-4.9,0-9.6-0.1-14.3-0.3v-0.9c4.6,0.2,9.4,0.3,14.3,0.3
						C356.7,293.7,357.1,293.7,357.4,293.7"/>
					<path class="st5" d="M342.1,293.4v0.9c-5.1-0.2-10.1-0.5-14.9-1v-0.9C332,292.9,337,293.2,342.1,293.4"/>
					<path class="st4" d="M327.2,292.4v0.9c-5.2-0.5-10.2-1-15-1.7v-0.9C317,291.4,322,292,327.2,292.4"/>
					<path class="st3" d="M312.2,290.8v0.9c-5.5-0.7-10.7-1.6-15.6-2.5v-0.9C301.5,289.2,306.7,290.1,312.2,290.8"/>
					<path class="st2" d="M296.6,288.3v0.9c-6-1.1-11.5-2.3-16.6-3.5v-0.9C285.1,286.1,290.7,287.2,296.6,288.3"/>
					<path class="st16" d="M280,284.9v0.9c-6.8-1.6-12.7-3.3-17.8-4.8V280C267.3,281.6,273.3,283.2,280,284.9"/>
					<path class="st17" d="M262.3,280v0.9c-8.1-2.5-13.9-4.7-17.1-6V274C248.3,275.3,254.1,277.5,262.3,280"/>
					<path class="st18" d="M245.2,274v0.9c-1.4-0.6-2.3-1-2.6-1.1V273C242.9,273.1,243.8,273.5,245.2,274"/>
				</g>
			</g>
		</g>
		<g class="st0">
			<g class="st0">
				<defs>
					<path id="SVGID_27_" class="st0" d="M235,184.3l0,0.9c0,1.7-0.3,3.4-1,5c-1.9,4.9-5.9,9.8-11,14.5c-4.8,4.3-10.6,8.3-16.9,12.1
						v-0.9c6.3-3.8,12.1-7.8,16.9-12.1c5.1-4.7,9.1-9.6,11-14.5C234.7,187.7,235,186,235,184.3z"/>
				</defs>
				<clipPath id="SVGID_28_">
					<use xlink:href="#SVGID_27_"  style="overflow:visible;"/>
				</clipPath>
				<g class="st46">
					<path class="st2" d="M235,184.3v0.9c0,0.1,0,0.2,0,0.3v-0.9C235,184.5,235,184.4,235,184.3"/>
					<path class="st3" d="M235,184.6v0.9c0,0.8-0.1,1.5-0.2,2.3v-0.9C234.9,186.1,235,185.4,235,184.6"/>
					<path class="st4" d="M234.8,186.9v0.9c-0.1,0.7-0.3,1.4-0.6,2.1V189C234.5,188.3,234.7,187.6,234.8,186.9"/>
					<path class="st5" d="M234.2,189v0.9c0,0.1-0.1,0.2-0.1,0.3c-0.3,0.9-0.7,1.7-1.2,2.6v-0.9c0.5-0.9,0.9-1.7,1.2-2.6
						C234.1,189.2,234.2,189.1,234.2,189"/>
					<path class="st6" d="M232.9,191.9v0.9c-0.7,1.2-1.4,2.4-2.3,3.7v-0.9C231.4,194.4,232.2,193.2,232.9,191.9"/>
					<path class="st7" d="M230.6,195.6v0.9c-1.1,1.6-2.4,3.1-3.9,4.7v-0.9C228.1,198.7,229.4,197.2,230.6,195.6"/>
					<path class="st8" d="M226.7,200.3v0.9c-1.1,1.2-2.3,2.4-3.6,3.5c-0.9,0.8-1.8,1.6-2.8,2.4v-0.9c1-0.8,1.9-1.6,2.8-2.4
						C224.3,202.6,225.5,201.5,226.7,200.3"/>
					<path class="st9" d="M220.3,206.2v0.9c-3.8,3.1-8.1,6-12.7,8.9v-0.9C212.2,212.2,216.5,209.3,220.3,206.2"/>
					<path class="st10" d="M207.6,215.1v0.9c-0.5,0.3-1,0.6-1.4,0.9v-0.9C206.6,215.6,207.1,215.4,207.6,215.1"/>
				</g>
			</g>
			<g>
				<polygon class="st14" points="206.2,215.9 206.2,216.8 193.9,224.1 193.9,223.3 				"/>
			</g>
			<g class="st0">
				<defs>
					<path id="SVGID_29_" class="st0" d="M149.3,207.6v-0.9c0,8,5.2,15.9,15.5,22.2c1.3,0.8,2.6,1.5,3.6,2c1.6,0.7,3.6,1.1,5.6,1.1
						c2.1,0,4.1-0.4,5.7-1.2c0.6-0.3,1.3-0.6,2-1c4.3-2.1,8.3-4.3,12.1-6.6v0.9c-3.8,2.3-7.9,4.5-12.1,6.6c-0.7,0.4-1.4,0.7-2,1
						c-1.6,0.8-3.7,1.2-5.7,1.2c-2,0-4-0.4-5.6-1.1c-1.1-0.5-2.3-1.2-3.6-2C154.5,223.5,149.3,215.6,149.3,207.6z"/>
				</defs>
				<clipPath id="SVGID_30_">
					<use xlink:href="#SVGID_29_"  style="overflow:visible;"/>
				</clipPath>
				<g class="st47">
					<path class="st10" d="M193.9,223.3v0.9c-3.8,2.3-7.9,4.5-12.1,6.6c-0.7,0.4-1.4,0.7-2,1c-0.9,0.4-1.9,0.7-2.9,0.9v-0.9
						c1-0.2,2-0.5,2.9-0.9c0.6-0.3,1.3-0.6,2-1C186.1,227.8,190.1,225.6,193.9,223.3"/>
					<path class="st9" d="M176.9,231.7v0.9c-0.4,0.1-0.7,0.1-1.1,0.2v-0.9C176.1,231.9,176.5,231.8,176.9,231.7"/>
					<path class="st8" d="M175.7,231.9v0.9c-0.3,0-0.6,0.1-0.9,0.1V232C175.2,232,175.4,231.9,175.7,231.9"/>
					<path class="st7" d="M174.9,232v0.9c-0.3,0-0.5,0-0.8,0V232C174.3,232,174.6,232,174.9,232"/>
					<path class="st6" d="M174.1,232v0.9c0,0,0,0-0.1,0c-0.2,0-0.5,0-0.7,0V232C173.6,232,173.8,232,174.1,232
						C174,232,174,232,174.1,232"/>
					<path class="st5" d="M173.3,232v0.9c-0.2,0-0.5,0-0.7,0v-0.9C172.8,232,173.1,232,173.3,232"/>
					<path class="st4" d="M172.6,231.9v0.9c-0.2,0-0.5,0-0.7-0.1v-0.9C172.2,231.9,172.4,231.9,172.6,231.9"/>
					<path class="st3" d="M171.9,231.9v0.9c-0.2,0-0.5-0.1-0.7-0.1v-0.9C171.5,231.8,171.7,231.8,171.9,231.9"/>
					<path class="st2" d="M171.2,231.8v0.9c-0.2,0-0.5-0.1-0.7-0.1v-0.9C170.8,231.7,171,231.7,171.2,231.8"/>
					<path class="st16" d="M170.5,231.6v0.9c-0.3-0.1-0.5-0.1-0.8-0.2v-0.9C170,231.5,170.3,231.5,170.5,231.6"/>
					<path class="st17" d="M169.8,231.4v0.9c-0.3-0.1-0.6-0.2-0.9-0.3v-0.9C169.1,231.2,169.4,231.3,169.8,231.4"/>
					<path class="st18" d="M168.9,231.1v0.9c-0.1-0.1-0.3-0.1-0.4-0.2c-1.1-0.5-2.3-1.2-3.6-2c-10.3-6.3-15.5-14.2-15.5-22.2v-0.9
						c0,8,5.2,15.9,15.5,22.2c1.3,0.8,2.6,1.5,3.6,2C168.6,231,168.7,231,168.9,231.1"/>
				</g>
			</g>
			<g>
				<path class="st11" d="M200.4,162.4c0.9,0,1.8,0,2.7,0.1c22.7,1.1,35.7,14.8,31,26.9c-1.9,4.9-5.9,9.8-11,14.5
					c-4.8,4.3-10.6,8.3-16.9,12.1l-12.2,7.3c-3.8,2.3-7.9,4.5-12.1,6.6c-0.7,0.4-1.4,0.7-2,1c-1.6,0.8-3.7,1.2-5.7,1.2
					c-2,0-4-0.4-5.6-1.1c-1.1-0.5-2.3-1.2-3.6-2c-16.7-10.2-19.9-24.7-9.4-36.9l16.6-19.4C176.9,166.7,188.1,162.4,200.4,162.4z"/>
			</g>
		</g>
	</g>
</g>
<g>
	<g>
		<g class="st0">
			<g>
				<path class="st48" d="M97.3,197.7c4.7,0,8.5,2,8.5,4.4c0,2.4-3.8,4.4-8.5,4.4s-8.6-2-8.6-4.4C88.7,199.6,92.5,197.7,97.3,197.7
					L97.3,197.7z"/>
			</g>
			<g class="st0">
				<defs>
					<path id="SVGID_31_" class="st0" d="M105.9,202.1v0.9c0,2.4-3.8,4.4-8.5,4.4s-8.6-2-8.6-4.4v-0.9c0,2.4,3.9,4.4,8.6,4.4
						S105.9,204.5,105.9,202.1z"/>
				</defs>
				<clipPath id="SVGID_32_">
					<use xlink:href="#SVGID_31_"  style="overflow:visible;"/>
				</clipPath>
				<g class="st49">
					<path class="st50" d="M105.9,202.1v0.9c0,0,0,0,0,0.1L105.9,202.1C105.9,202.1,105.9,202.1,105.9,202.1"/>
					<path class="st51" d="M105.9,202.1v0.9c0,0.1,0,0.3,0,0.4v-0.9C105.9,202.4,105.9,202.3,105.9,202.1"/>
					<path class="st52" d="M105.8,202.5v0.9c0,0.1-0.1,0.2-0.1,0.4v-0.9C105.8,202.8,105.8,202.6,105.8,202.5"/>
					<path class="st53" d="M105.7,202.9v0.9c0,0.1-0.1,0.2-0.2,0.4v-0.9C105.6,203.1,105.7,203,105.7,202.9"/>
					<path class="st54" d="M105.6,203.2v0.9c-0.1,0.1-0.1,0.2-0.2,0.4v-0.9C105.4,203.5,105.5,203.4,105.6,203.2"/>
					<path class="st55" d="M105.3,203.6v0.9c-0.1,0.1-0.2,0.3-0.3,0.4V204C105.1,203.9,105.2,203.7,105.3,203.6"/>
					<path class="st56" d="M105,204v0.9c-0.1,0.1-0.3,0.3-0.4,0.4v-0.9C104.7,204.3,104.9,204.1,105,204"/>
					<path class="st57" d="M104.6,204.4v0.9c-0.2,0.2-0.4,0.3-0.7,0.5v-0.9C104.1,204.7,104.4,204.6,104.6,204.4"/>
					<path class="st58" d="M103.9,204.9v0.9c-1,0.6-2.2,1-3.6,1.3v-0.9C101.7,205.9,102.9,205.5,103.9,204.9"/>
					<path class="st57" d="M100.2,206.2v0.9c-0.4,0.1-0.7,0.1-1.1,0.2v-0.9C99.5,206.3,99.9,206.3,100.2,206.2"/>
					<path class="st56" d="M99.1,206.4v0.9c-0.3,0-0.6,0.1-0.9,0.1v-0.9C98.5,206.4,98.8,206.4,99.1,206.4"/>
					<path class="st55" d="M98.2,206.4v0.9c-0.3,0-0.5,0-0.8,0v-0.9C97.7,206.5,97.9,206.5,98.2,206.4"/>
					<path class="st54" d="M97.4,206.5v0.9c0,0,0,0-0.1,0c-0.2,0-0.5,0-0.7,0v-0.9C96.9,206.5,97.1,206.5,97.4,206.5
						C97.4,206.5,97.4,206.5,97.4,206.5"/>
					<path class="st53" d="M96.6,206.5v0.9c-0.2,0-0.5,0-0.7,0v-0.9C96.1,206.4,96.4,206.4,96.6,206.5"/>
					<path class="st52" d="M95.9,206.4v0.9c-0.2,0-0.5,0-0.7-0.1v-0.9C95.4,206.4,95.7,206.4,95.9,206.4"/>
					<path class="st51" d="M95.2,206.3v0.9c-0.2,0-0.5-0.1-0.7-0.1v-0.9C94.7,206.3,94.9,206.3,95.2,206.3"/>
					<path class="st50" d="M94.5,206.2v0.9c-0.3,0-0.5-0.1-0.7-0.2v-0.9C94,206.1,94.2,206.2,94.5,206.2"/>
					<path class="st59" d="M93.7,206.1v0.9c-0.3-0.1-0.5-0.1-0.8-0.2v-0.9C93.2,205.9,93.4,206,93.7,206.1"/>
					<path class="st60" d="M92.9,205.8v0.9c-0.3-0.1-0.6-0.2-0.9-0.3v-0.9C92.3,205.6,92.6,205.7,92.9,205.8"/>
					<path class="st61" d="M92,205.5v0.9c-2-0.8-3.3-2-3.3-3.4v-0.9C88.7,203.5,90,204.7,92,205.5"/>
				</g>
			</g>
		</g>
	</g>
</g>
</svg>
