<?xml version="1.0" encoding="utf-8"?>
<!-- Generator: Adobe Illustrator 22.0.1, SVG Export Plug-In . SVG Version: 6.00 Build 0)  -->
<svg version="1.1" id="Calque_1" xmlns="http://www.w3.org/2000/svg" xmlns:xlink="http://www.w3.org/1999/xlink" x="0px" y="0px"
	 viewBox="0 0 512 512" style="enable-background:new 0 0 512 512;" xml:space="preserve">
<style type="text/css">
	.st0{fill:#CCAA17;}
	.st1{fill:#353535;}
	.st2{fill:#A85C1E;}
	.st3{fill:#D1BB74;}
	.st4{fill:#2C2B2D;}
	.st5{fill:#703D18;}
	.st6{fill:#FFFFFF;}
	.st7{fill:#003B6B;}
	.st8{fill:#C00101;}
</style>
<path class="st0" d="M212.8,24.1"/>
<path class="st1" d="M287.8,14.9"/>
<path class="st2" d="M82.2,287.8c0,0-16.6,11.8-27.4,20.2c-4.1,3.2-7.4,5.9-8.5,7.2c-9.6,11.4-12.4,24,8,32.6
	c0,0,56.9,15.5,183.2-22.8c0,0,81.8-32.1,171.8-47.6s86.9-33.1,86.9-33.1s10.3-16.6-6.2-24.8l-4.1-95.2c0,0-1-20.7-38.3-12.4
	l-172.8,67.3L256,139.9L82.2,287.8z"/>
<path class="st3" d="M58,328.4l-18-2.6l-1,8.1c0,0,4,15.3,29.5,16.2c25.5,0.9,55.6-0.5,70.1-2.6s59-8.2,98.9-22.3
	c39.9-14.1,82.9-27.2,82.9-27.2s86.5-20.8,109.4-21.5c22.9-0.7,63.7-26.7,63.7-26.7s7.7-8.9,5.9-16.2l-0.7-4.7l-15.3,9.8
	c0,0-46.9,21.7-52.7,21.4c-5.9-0.3-103.9,19.5-103.9,19.5l-36.6,10l-80.4,25l-67.3,14l-53.1,5L58,328.4z"/>
<path class="st4" d="M286.3,214.9l181.3-80c0,0,28.9-24.3-15.7-19.7L278,184.7L286.3,214.9z"/>
<path class="st5" d="M246,156.5l38.2,129.8c0,0,18.3-3.6,16.3-16.3c0,0-14.4-66.2-44.4-120.1L246,156.5z"/>
<rect x="90" y="319.6" transform="matrix(0.9522 0.3055 -0.3055 0.9522 104.2382 -12.0887)" class="st6" width="1.5" height="14.9"/>
<rect x="105.2" y="318.5" transform="matrix(0.9522 0.3055 -0.3055 0.9522 104.6177 -16.7865)" class="st6" width="1.5" height="14.9"/>
<rect x="120.3" y="317" transform="matrix(0.9522 0.3055 -0.3055 0.9522 104.8918 -21.4645)" class="st6" width="1.5" height="14.9"/>
<rect x="135.3" y="315.7" transform="matrix(0.9249 0.3802 -0.3802 0.9249 133.0919 -27.4633)" class="st6" width="1.5" height="14.9"/>
<rect x="77.1" y="317" transform="matrix(0.9522 0.3055 -0.3055 0.9522 102.8267 -8.2663)" class="st6" width="1.5" height="14.9"/>
<rect x="62.8" y="314.6" transform="matrix(0.9522 0.3055 -0.3055 0.9522 101.4017 -4.0267)" class="st6" width="1.5" height="14.9"/>
<rect x="151.9" y="313.4" transform="matrix(0.9522 0.3055 -0.3055 0.9522 105.3022 -31.2732)" class="st6" width="1.5" height="14.9"/>
<rect x="168" y="309.8" transform="matrix(0.9522 0.3055 -0.3055 0.9522 104.9848 -36.3698)" class="st6" width="1.5" height="14.9"/>
<rect x="183.3" y="306.1" transform="matrix(0.9522 0.3055 -0.3055 0.9522 104.5721 -41.2408)" class="st6" width="1.5" height="14.9"/>
<rect x="199.1" y="302.9" transform="matrix(0.9522 0.3055 -0.3055 0.9522 104.3583 -46.2165)" class="st6" width="1.5" height="14.9"/>
<rect x="213.9" y="298.6" transform="matrix(0.9982 6.035265e-02 -6.035265e-02 0.9982 18.8626 -12.3951)" class="st6" width="1.5" height="14.9"/>
<rect x="228" y="294.1" transform="matrix(0.9982 6.035265e-02 -6.035265e-02 0.9982 18.618 -13.2553)" class="st6" width="1.5" height="14.9"/>
<rect x="240" y="291.1" transform="matrix(0.9982 6.035265e-02 -6.035265e-02 0.9982 18.4587 -13.984)" class="st6" width="1.5" height="14.9"/>
<rect x="253.3" y="286.4" transform="matrix(0.9982 6.035265e-02 -6.035265e-02 0.9982 18.1949 -14.7974)" class="st6" width="1.5" height="14.9"/>
<rect x="263.7" y="283.6" transform="matrix(0.9982 6.035265e-02 -6.035265e-02 0.9982 18.0504 -15.4255)" class="st6" width="1.5" height="14.9"/>
<rect x="277.3" y="278.9" transform="matrix(0.9982 6.035265e-02 -6.035265e-02 0.9982 17.7871 -16.2568)" class="st6" width="1.5" height="14.9"/>
<rect x="289.9" y="275.3" transform="matrix(0.9982 6.035265e-02 -6.035265e-02 0.9982 17.5949 -17.0241)" class="st6" width="1.5" height="14.9"/>
<rect x="307.5" y="270.2" transform="matrix(0.9878 0.156 -0.156 0.9878 47.0818 -44.6769)" class="st6" width="1.5" height="14.9"/>
<rect x="321.3" y="266.8" transform="matrix(0.9878 0.156 -0.156 0.9878 46.7083 -46.8607)" class="st6" width="1.5" height="14.9"/>
<rect x="331.8" y="265.1" transform="matrix(0.9878 0.156 -0.156 0.9878 46.572 -48.525)" class="st6" width="1.5" height="14.9"/>
<rect x="345.8" y="261.6" transform="matrix(0.9878 0.156 -0.156 0.9878 46.2066 -50.7546)" class="st6" width="1.5" height="14.9"/>
<rect x="358.7" y="259.3" transform="matrix(0.9878 0.156 -0.156 0.9878 45.9998 -52.7935)" class="st6" width="1.5" height="14.9"/>
<rect x="372.3" y="256.6" transform="matrix(0.9813 0.1926 -0.1926 0.9813 57.8343 -66.8981)" class="st6" width="1.5" height="14.9"/>
<rect x="386.2" y="253.7" transform="matrix(0.9813 0.1926 -0.1926 0.9813 57.5237 -69.6205)" class="st6" width="1.5" height="14.9"/>
<rect x="396.8" y="252.4" transform="matrix(0.9813 0.1926 -0.1926 0.9813 57.4701 -71.6851)" class="st6" width="1.5" height="14.9"/>
<rect x="410.9" y="249.4" transform="matrix(0.9813 0.1926 -0.1926 0.9813 57.1726 -74.4634)" class="st6" width="1.5" height="14.9"/>
<rect x="423.9" y="247.6" transform="matrix(0.9813 0.1926 -0.1926 0.9813 57.0578 -76.9954)" class="st6" width="1.5" height="14.9"/>
<rect x="437" y="243.8" transform="matrix(1 -5.580040e-03 5.580040e-03 1 -1.3953 2.4464)" class="st6" width="1.5" height="14.9"/>
<rect x="450" y="238.2" transform="matrix(1 -5.580040e-03 5.580040e-03 1 -1.3637 2.5187)" class="st6" width="1.5" height="14.9"/>
<rect x="460.1" y="234.8" transform="matrix(1 -5.580040e-03 5.580040e-03 1 -1.3446 2.5752)" class="st6" width="1.5" height="14.9"/>
<rect x="473.4" y="229.1" transform="matrix(1 -5.580040e-03 5.580040e-03 1 -1.3128 2.6492)" class="st6" width="1.5" height="14.9"/>
<rect x="485.7" y="224.8" transform="matrix(1 -5.580040e-03 5.580040e-03 1 -1.2882 2.718)" class="st6" width="1.5" height="14.9"/>
<rect x="48.5" y="313.4" transform="matrix(0.9522 0.3055 -0.3055 0.9522 100.3599 0.3126)" class="st6" width="1.5" height="14.9"/>
<rect x="292.9" y="238.7" transform="matrix(0.9539 -0.3002 0.3002 0.9539 -58.8654 101.0212)" class="st7" width="12.8" height="6.9"/>
<rect x="294.5" y="245.2" transform="matrix(0.9539 -0.3002 0.3002 0.9539 -60.7625 101.9444)" class="st6" width="13.8" height="7"/>
<rect x="297" y="252.3" transform="matrix(0.9539 -0.3002 0.3002 0.9539 -62.7707 102.8755)" class="st8" width="12.9" height="6.7"/>
</svg>
