<?xml version="1.0" encoding="utf-8"?>
<!-- Generator: Adobe Illustrator 22.0.1, SVG Export Plug-In . SVG Version: 6.00 Build 0)  -->
<svg version="1.1" id="Calque_1" xmlns="http://www.w3.org/2000/svg" xmlns:xlink="http://www.w3.org/1999/xlink" x="0px" y="0px"
	 viewBox="0 0 512 512" style="enable-background:new 0 0 512 512;" xml:space="preserve">
<style type="text/css">
	.st0{fill:#D30707;}
	.st1{fill:#7F0808;}
	.st2{fill:#CCAA17;}
</style>
<path class="st0" d="M249.2,231.8v278.8c-66.7-7.1-89.3-31-89.3-31V177.8l-1.2,4.3L95.2,411.4c-40.4,10.5-62.9-16.5-62.9-16.5
	C38.6,257,82.7,134.8,96.9,98.8c2.7-7,4.4-10.8,4.4-10.8c1.1-1.1,2.1-2.1,3.2-3.1c36-33.9,89-52.8,89-52.8L223.3,22h51.8
	L249.2,231.8z"/>
<path class="st0" d="M249.2,231.8v278.8c66.7-7.1,89.3-31,89.3-31V177.8l1.2,4.3l63.4,229.3c40.4,10.5,62.9-16.5,62.9-16.5
	c-6.3-137.9-50.3-260.1-64.5-296.2c-2.7-7-4.4-10.8-4.4-10.8c-1.1-1.1-2.1-2.1-3.2-3.1c-36-33.9-89-52.8-89-52.8L275.1,22"/>
<g>
	<path class="st1" d="M221.3,32l-5.8,28.4c-54.7,18.9-100.6,39.4-113.9,108.8c-13.3,69.4-52.1,239.1-52.1,239.1
		c-12.4-5.6-19-13.5-19-13.5C37.9,230.2,99.3,88,99.3,88c35.9-35.9,92.2-56,92.2-56l2.8-0.9L221.3,32z"/>
	<path class="st1" d="M194.5,185.6v313.9c-26.5-9.2-36.6-19.8-36.6-19.8V177.8l0,0v0c0-24.8-10.1-47.9-10.1-47.9
		S194.5,136.3,194.5,185.6z"/>
	<path class="st1" d="M431.5,412.8L431.5,412.8c-8.4,1.5-18.3,1.5-29.6-1.4l-63.4-229.3l-1.2-4.3c0-0.4,0-0.9,0-1.3
		c0.3-2.1,3.2-18.9,12.4-38.7l7.3,24.7L431.5,412.8z"/>
</g>
<path class="st2" d="M452,389.1c-0.5,0-1,0-1.5-0.1c-0.5-0.1-1-0.2-1.5-0.4s-0.9-0.4-1.3-0.7c-0.4-0.3-0.8-0.6-1.2-1
	c-0.4-0.4-0.7-0.8-1-1.2c-0.3-0.4-0.5-0.9-0.7-1.4c-0.2-0.5-0.3-1-0.4-1.5c-0.1-0.5-0.2-1-0.2-1.5c0-0.5,0.1-1,0.2-1.5
	c0.1-0.5,0.2-1,0.4-1.5c0.2-0.5,0.4-0.9,0.7-1.4c0.3-0.4,0.6-0.8,1-1.2c0.4-0.4,0.8-0.7,1.2-1c0.4-0.3,0.9-0.5,1.3-0.7
	s1-0.3,1.5-0.4c2.5-0.5,5.3,0.3,7.1,2.1c0.4,0.4,0.7,0.8,1,1.2c0.3,0.4,0.5,0.9,0.7,1.4c0.2,0.5,0.4,1,0.4,1.5
	c0.1,0.5,0.2,1,0.2,1.5c0,0.5-0.1,1-0.2,1.5c-0.1,0.5-0.2,1-0.4,1.5c-0.2,0.5-0.4,0.9-0.7,1.4c-0.3,0.4-0.6,0.8-1,1.2
	C456.1,388.2,454,389.1,452,389.1z"/>
<path class="st2" d="M44.9,386.8c-0.5,0-1,0-1.5-0.1c-0.5-0.1-1-0.2-1.5-0.4c-0.5-0.2-0.9-0.4-1.3-0.7c-0.4-0.3-0.8-0.6-1.2-1
	c-0.4-0.4-0.7-0.8-1-1.2c-0.3-0.4-0.5-0.9-0.7-1.4c-0.2-0.5-0.3-1-0.4-1.5c-0.1-0.5-0.2-1-0.2-1.5s0.1-1,0.2-1.5
	c0.1-0.5,0.2-1,0.4-1.5c0.2-0.5,0.4-0.9,0.7-1.4c0.3-0.4,0.6-0.8,1-1.2c0.4-0.4,0.8-0.7,1.2-1c0.4-0.3,0.9-0.5,1.3-0.7
	c0.5-0.2,1-0.3,1.5-0.4c2.5-0.5,5.3,0.3,7.1,2.1c1.5,1.5,2.3,3.5,2.3,5.5c0,2.1-0.8,4.1-2.3,5.5C48.9,386,46.9,386.8,44.9,386.8z"/>
<path class="st2" d="M333.8,146.8l-56.4,4.6l1.2-10.9L335,136"/>
<path class="st1" d="M400.4,98.8c-25.1,17.9-37.5,45.9-43.2,63.7c-2.6,8-3.8,13.9-4.1,15.9c-0.1,0.4-0.1,0.7-0.1,0.7
	c-0.6,3.9-3.9,6.6-7.7,6.6c-0.4,0-0.8,0-1.2-0.1c-2.3-0.4-4.2-1.7-5.4-3.5c-0.6-0.9-1-2-1.2-3.1c-0.1-0.8-0.1-1.6,0-2.4
	c0,0,0-0.1,0-0.1c0.3-2.1,3.2-18.9,12.4-38.7c8.3-17.9,21.7-38.4,43-52.9c1.1,1,2.2,2.1,3.2,3.1C396,88,397.6,91.8,400.4,98.8z"/>
<path class="st2" d="M256,87.6c-0.3,0-0.7,0-1-0.1c-0.3-0.1-0.6-0.2-1-0.3c-0.3-0.1-0.6-0.3-0.9-0.5c-0.3-0.2-0.5-0.4-0.8-0.7
	c-0.2-0.3-0.4-0.5-0.6-0.8c-0.2-0.3-0.3-0.6-0.5-0.9c-0.1-0.3-0.2-0.7-0.3-1c-0.1-0.3-0.1-0.7-0.1-1.1c0-0.4,0-0.7,0.1-1.1
	c0.1-0.3,0.2-0.7,0.3-1c0.1-0.3,0.3-0.6,0.5-0.9c0.2-0.3,0.4-0.6,0.6-0.8c0.2-0.2,0.5-0.5,0.8-0.7c0.3-0.2,0.6-0.4,0.9-0.5
	c0.3-0.1,0.6-0.2,1-0.3c1.7-0.4,3.4,0.2,4.6,1.5c0.2,0.3,0.4,0.5,0.6,0.8c0.2,0.3,0.3,0.6,0.5,0.9c0.1,0.3,0.2,0.7,0.3,1
	c0.1,0.3,0.1,0.7,0.1,1.1c0,0.3,0,0.7-0.1,1.1c-0.1,0.3-0.2,0.7-0.3,1c-0.1,0.3-0.3,0.6-0.5,0.9c-0.2,0.3-0.4,0.6-0.6,0.8
	C258.7,87,257.3,87.6,256,87.6z"/>
<path class="st2" d="M205.2,6.4v14.2c0,0-1.5,32.1,40.2,35.1V42.6C245.4,42.6,215.9,40,205.2,6.4z"/>
<path class="st2" d="M290.5,6.4v14.8c0,0,1.5,33.3-40.1,36.5V43.9C250.4,43.9,279.8,41.3,290.5,6.4z"/>
<path class="st2" d="M205.2,7.4h85.4c0,0-1.3,13.7-9.2,17.6l-66.5,0.8C214.8,25.8,205,13.5,205.2,7.4z"/>
<path class="st2" d="M256,141.4c-0.3,0-0.7,0-1-0.1c-0.3-0.1-0.6-0.2-1-0.3c-0.3-0.1-0.6-0.3-0.9-0.5c-0.3-0.2-0.5-0.4-0.8-0.7
	c-0.2-0.3-0.4-0.5-0.6-0.8c-0.2-0.3-0.3-0.6-0.5-0.9c-0.1-0.3-0.2-0.7-0.3-1c-0.1-0.3-0.1-0.7-0.1-1.1c0-0.4,0-0.7,0.1-1.1
	c0.1-0.3,0.2-0.7,0.3-1c0.1-0.3,0.3-0.6,0.5-0.9c0.2-0.3,0.4-0.6,0.6-0.8c0.2-0.2,0.5-0.5,0.8-0.7c0.3-0.2,0.6-0.4,0.9-0.5
	c0.3-0.1,0.6-0.2,1-0.3c1.7-0.4,3.4,0.2,4.6,1.5c0.2,0.3,0.4,0.5,0.6,0.8c0.2,0.3,0.3,0.6,0.5,0.9c0.1,0.3,0.2,0.7,0.3,1
	c0.1,0.3,0.1,0.7,0.1,1.1c0,0.3,0,0.7-0.1,1.1c-0.1,0.3-0.2,0.7-0.3,1c-0.1,0.3-0.3,0.6-0.5,0.9c-0.2,0.3-0.4,0.6-0.6,0.8
	C258.7,140.8,257.3,141.4,256,141.4z"/>
<path class="st2" d="M256,195.2c-0.3,0-0.7,0-1-0.1c-0.3-0.1-0.6-0.2-1-0.3c-0.3-0.1-0.6-0.3-0.9-0.5c-0.3-0.2-0.5-0.4-0.8-0.7
	c-0.2-0.3-0.4-0.5-0.6-0.8c-0.2-0.3-0.3-0.6-0.5-0.9c-0.1-0.3-0.2-0.7-0.3-1c-0.1-0.3-0.1-0.7-0.1-1.1c0-0.4,0-0.7,0.1-1.1
	c0.1-0.3,0.2-0.7,0.3-1c0.1-0.3,0.3-0.6,0.5-0.9c0.2-0.3,0.4-0.6,0.6-0.8c0.2-0.2,0.5-0.5,0.8-0.7c0.3-0.2,0.6-0.4,0.9-0.5
	c0.3-0.1,0.6-0.2,1-0.3c1.7-0.4,3.4,0.2,4.6,1.5c0.2,0.3,0.4,0.5,0.6,0.8c0.2,0.3,0.3,0.6,0.5,0.9c0.1,0.3,0.2,0.7,0.3,1
	c0.1,0.3,0.1,0.7,0.1,1.1c0,0.3,0,0.7-0.1,1.1c-0.1,0.3-0.2,0.7-0.3,1c-0.1,0.3-0.3,0.6-0.5,0.9c-0.2,0.3-0.4,0.6-0.6,0.8
	C258.7,194.6,257.3,195.2,256,195.2z"/>
<path class="st2" d="M256,248.9c-0.3,0-0.7,0-1-0.1c-0.3-0.1-0.6-0.2-1-0.3c-0.3-0.1-0.6-0.3-0.9-0.5c-0.3-0.2-0.5-0.4-0.8-0.7
	c-0.2-0.3-0.4-0.5-0.6-0.8c-0.2-0.3-0.3-0.6-0.5-0.9c-0.1-0.3-0.2-0.7-0.3-1c-0.1-0.3-0.1-0.7-0.1-1.1c0-0.4,0-0.7,0.1-1.1
	c0.1-0.3,0.2-0.7,0.3-1c0.1-0.3,0.3-0.6,0.5-0.9c0.2-0.3,0.4-0.6,0.6-0.8c0.2-0.2,0.5-0.5,0.8-0.7c0.3-0.2,0.6-0.4,0.9-0.5
	c0.3-0.1,0.6-0.2,1-0.3c1.7-0.4,3.4,0.2,4.6,1.5c0.2,0.3,0.4,0.5,0.6,0.8c0.2,0.3,0.3,0.6,0.5,0.9c0.1,0.3,0.2,0.7,0.3,1
	c0.1,0.3,0.1,0.7,0.1,1.1c0,0.3,0,0.7-0.1,1.1c-0.1,0.3-0.2,0.7-0.3,1c-0.1,0.3-0.3,0.6-0.5,0.9c-0.2,0.3-0.4,0.6-0.6,0.8
	C258.7,248.4,257.3,248.9,256,248.9z"/>
<path class="st2" d="M256,302.7c-0.3,0-0.7,0-1-0.1c-0.3-0.1-0.6-0.2-1-0.3c-0.3-0.1-0.6-0.3-0.9-0.5c-0.3-0.2-0.5-0.4-0.8-0.7
	c-0.2-0.3-0.4-0.5-0.6-0.8c-0.2-0.3-0.3-0.6-0.5-0.9c-0.1-0.3-0.2-0.7-0.3-1c-0.1-0.3-0.1-0.7-0.1-1.1c0-0.4,0-0.7,0.1-1.1
	c0.1-0.3,0.2-0.7,0.3-1c0.1-0.3,0.3-0.6,0.5-0.9c0.2-0.3,0.4-0.6,0.6-0.8c0.2-0.2,0.5-0.5,0.8-0.7c0.3-0.2,0.6-0.4,0.9-0.5
	c0.3-0.1,0.6-0.2,1-0.3c1.7-0.4,3.4,0.2,4.6,1.5c0.2,0.3,0.4,0.5,0.6,0.8c0.2,0.3,0.3,0.6,0.5,0.9c0.1,0.3,0.2,0.7,0.3,1
	c0.1,0.3,0.1,0.7,0.1,1.1c0,0.3,0,0.7-0.1,1.1c-0.1,0.3-0.2,0.7-0.3,1c-0.1,0.3-0.3,0.6-0.5,0.9c-0.2,0.3-0.4,0.6-0.6,0.8
	C258.7,302.1,257.3,302.7,256,302.7z"/>
<path class="st2" d="M256,356.5c-0.3,0-0.7,0-1-0.1c-0.3-0.1-0.6-0.2-1-0.3c-0.3-0.1-0.6-0.3-0.9-0.5c-0.3-0.2-0.5-0.4-0.8-0.7
	c-0.2-0.3-0.4-0.5-0.6-0.8c-0.2-0.3-0.3-0.6-0.5-0.9c-0.1-0.3-0.2-0.7-0.3-1c-0.1-0.3-0.1-0.7-0.1-1.1c0-0.4,0-0.7,0.1-1.1
	c0.1-0.3,0.2-0.7,0.3-1c0.1-0.3,0.3-0.6,0.5-0.9c0.2-0.3,0.4-0.6,0.6-0.8c0.2-0.2,0.5-0.5,0.8-0.7c0.3-0.2,0.6-0.4,0.9-0.5
	c0.3-0.1,0.6-0.2,1-0.3c1.7-0.4,3.4,0.2,4.6,1.5c0.2,0.3,0.4,0.5,0.6,0.8c0.2,0.3,0.3,0.6,0.5,0.9c0.1,0.3,0.2,0.7,0.3,1
	c0.1,0.3,0.1,0.7,0.1,1.1c0,0.3,0,0.7-0.1,1.1c-0.1,0.3-0.2,0.7-0.3,1c-0.1,0.3-0.3,0.6-0.5,0.9c-0.2,0.3-0.4,0.6-0.6,0.8
	C258.7,355.9,257.3,356.5,256,356.5z"/>
</svg>
