<?xml version="1.0" encoding="utf-8"?>
<!-- Generator: Adobe Illustrator 22.0.1, SVG Export Plug-In . SVG Version: 6.00 Build 0)  -->
<svg version="1.1" id="Calque_1" xmlns="http://www.w3.org/2000/svg" xmlns:xlink="http://www.w3.org/1999/xlink" x="0px" y="0px"
	 viewBox="0 0 512 512" style="enable-background:new 0 0 512 512;" xml:space="preserve">
<style type="text/css">
	.st0{fill:#2C6A9B;}
	.st1{fill:#1A5A84;}
	.st2{fill:#DCEEEF;}
	.st3{fill:#BCDDE2;}
	.st4{fill:#8BC1C6;}
	.st5{fill:#3B7CA8;}
	.st6{fill:#F7F4EC;}
	.st7{fill:#003B6B;}
	.st8{clip-path:url(#SVGID_2_);}
	.st9{clip-path:url(#SVGID_4_);fill:#BF0202;}
	.st10{clip-path:url(#SVGID_4_);fill:#FFFFFF;}
	.st11{clip-path:url(#SVGID_4_);fill:#003B6B;}
	.st12{clip-path:url(#SVGID_4_);fill:#FDFEFF;}
	.st13{font-family:'BookmanOldStyle';}
	.st14{font-size:2.4219px;}
	.st15{font-family:'bromello';}
	.st16{clip-path:url(#SVGID_6_);fill:#FFFFFF;}
	.st17{clip-path:url(#SVGID_6_);fill:#F9F9F9;}
	.st18{clip-path:url(#SVGID_6_);fill:none;stroke:#A5A5A5;stroke-width:5.000000e-02;stroke-miterlimit:10;}
	.st19{clip-path:url(#SVGID_6_);fill:#003B6B;}
	.st20{clip-path:url(#SVGID_6_);fill:#BF0202;}
	.st21{font-family:'ImprintMT-Shadow';}
	.st22{font-size:2.1087px;}
	.st23{fill:#FFFFFF;}
	.st24{fill:#CB3331;}
</style>
<path class="st0" d="M205.5,399.1h101V455h-101V399.1z"/>
<path class="st1" d="M205.5,399.1h101v17.4h-101V399.1z"/>
<path class="st2" d="M354.2,468.7H157.8c-5.1,0-9.3-4.2-9.3-9.3s4.2-9.3,9.3-9.3h196.4c5.1,0,9.3,4.2,9.3,9.3
	S359.4,468.7,354.2,468.7z"/>
<path class="st2" d="M512,59.8v331.8c0,5.8-4.7,10.5-10.5,10.5h-491c-5.8,0-10.5-4.7-10.5-10.5V59.8C0,51.1,7.1,44,15.8,44h480.5
	C504.9,44,512,51.1,512,59.8z"/>
<path class="st3" d="M512,59.8v331.8c0,5.8-4.7,10.5-10.5,10.5h-22.9c5.8,0,10.5-4.7,10.5-10.5V59.8c0-8.7-7.1-15.8-15.8-15.8h22.9
	C504.9,44,512,51.1,512,59.8z"/>
<path class="st4" d="M512,59.8v22.5H0V59.8C0,51.1,7.1,44,15.8,44h480.5C504.9,44,512,51.1,512,59.8z"/>
<path class="st5" d="M512,351.6v39.9c0,5.8-4.7,10.5-10.5,10.5h-491c-5.8,0-10.5-4.7-10.5-10.5v-39.9H512z"/>
<path class="st0" d="M512,351.6v39.9c0,5.8-4.7,10.5-10.5,10.5h-22.9c5.8,0,10.5-4.7,10.5-10.5v-39.9H512z"/>
<rect x="5.9" y="92.1" class="st6" width="472.7" height="247.7"/>
<rect x="578" y="252.5" class="st6" width="472.7" height="247.7"/>
<rect x="5.9" y="92.1" class="st7" width="472.7" height="32.4"/>
<g>
	<g>
		<defs>
			<rect id="SVGID_1_" x="227.6" y="105.5" width="36.5" height="31.8"/>
		</defs>
		<clipPath id="SVGID_2_">
			<use xlink:href="#SVGID_1_"  style="overflow:visible;"/>
		</clipPath>
		<g class="st8">
			<defs>
				<rect id="SVGID_3_" x="227.6" y="105.5" width="36.5" height="31.8"/>
			</defs>
			<clipPath id="SVGID_4_">
				<use xlink:href="#SVGID_3_"  style="overflow:visible;"/>
			</clipPath>
			<path class="st9" d="M263.2,121.6c0,8.6-7.7,15.6-17.2,15.6s-17.2-7-17.2-15.6S236.5,106,246,106S263.2,113,263.2,121.6"/>
			<path class="st10" d="M261.6,121.6c0,8.2-7.3,14.8-16.3,14.8c-9,0-16.3-6.6-16.3-14.8c0-8.2,7.3-14.8,16.3-14.8
				C254.3,106.8,261.6,113.4,261.6,121.6"/>
			<path class="st11" d="M260.4,121.6c0,7.5-6.7,13.6-15,13.6c-8.3,0-15-6.1-15-13.6c0-7.5,6.7-13.6,15-13.6
				C253.7,108,260.4,114.1,260.4,121.6"/>
			<path class="st12" d="M239.2,113.7c0,0,1.2,1.1,3.1,0.5c1.8-0.7,1.9-2.2,1.9-2.2l4.4,0c0,0,0.2,7.6,3.5,6.8l3.8,7.7
				c0,0-5.7,3.5-14.3,5.1l-3-8c0,0,3-1.3-2.4-7.1L239.2,113.7z"/>
		</g>
		<g class="st8">
			<text transform="matrix(1.1039 0 0 1.1756 239.1011 122.1407)" class="st7 st13 st14">   </text>
		</g>
		<g class="st8">
			<text transform="matrix(1.1039 0 0 1.1756 241.6685 122.1407)" class="st7 st15 st14">Sherwani</text>
		</g>
		<g class="st8">
			<text transform="matrix(1.1039 0 0 1.1756 250.5493 122.1407)" class="st7 st13 st14">     </text>
		</g>
		<g class="st8">
			<defs>
				<rect id="SVGID_5_" x="227.6" y="105.5" width="36.5" height="31.8"/>
			</defs>
			<clipPath id="SVGID_6_">
				<use xlink:href="#SVGID_5_"  style="overflow:visible;"/>
			</clipPath>
			<path class="st16" d="M242.4,114c0,0-0.4-1,0.3-1.6c0.7-0.6,0.8-1.6,0.8-1.6l0.6,1.1C244,111.8,243.9,113.2,242.4,114"/>
			<path class="st16" d="M242.1,114.1c0,0-0.5-1-1.5-0.9c-1,0-1.8-0.6-1.8-0.6l0.4,1.1C239.3,113.7,240.5,114.6,242.1,114.1"/>
			<path class="st17" d="M238.9,112.4c0,0,2.2-1.5,4.4-1.7c0,0,0,0.4-0.1,0.7l-0.2,0.3c0,0-1.8,0.4-3,1.2
				C240,113,239.6,112.9,238.9,112.4"/>
			<polygon class="st18" points="241.1,112.4 241,112.1 241.6,111.9 241.7,112.2 			"/>
			<polygon class="st19" points="241,112.1 241.2,112.4 241.3,112.3 241.2,112.1 			"/>
			<polygon class="st20" points="241.4,112 241.5,112.3 241.7,112.2 241.6,111.9 			"/>
		</g>
		<g class="st8">
			<text transform="matrix(1.1039 0 0 1.1756 244.5864 124.709)" class="st7 st21 st22">Français</text>
		</g>
		<g class="st8">
			<text transform="matrix(1.1039 0 0 1.1756 239.9351 119.253)" class="st7 st21 st22">Le</text>
		</g>
	</g>
</g>
<rect x="36.7" y="107.5" class="st23" width="41.4" height="2.8"/>
<rect x="144.6" y="107.5" class="st23" width="41.4" height="2.8"/>
<rect x="313.9" y="107.5" class="st23" width="41.4" height="2.8"/>
<rect x="393.6" y="107.5" class="st23" width="41.4" height="2.8"/>
<rect x="65.7" y="256.8" class="st23" width="348.6" height="22.8"/>
<rect x="65.7" y="223" class="st23" width="348.6" height="22.8"/>
<rect x="65.7" y="189.2" class="st23" width="348.6" height="22.8"/>
<rect x="5.9" y="302.8" class="st24" width="472.7" height="37"/>
</svg>
