<?xml version="1.0" encoding="utf-8"?>
<!-- Generator: Adobe Illustrator 22.0.1, SVG Export Plug-In . SVG Version: 6.00 Build 0)  -->
<svg version="1.1" id="Calque_1" xmlns="http://www.w3.org/2000/svg" xmlns:xlink="http://www.w3.org/1999/xlink" x="0px" y="0px"
	 viewBox="0 0 512 512" style="enable-background:new 0 0 512 512;" xml:space="preserve">
<style type="text/css">
	.st0{fill:#D30707;}
	.st1{fill:#06295B;}
	.st2{fill:#475B8E;}
	.st3{fill:#353535;}
	.st4{fill:#CCAA17;}
	.st5{fill:#C6B677;}
</style>
<path class="st0" d="M218.5,264"/>
<path class="st1" d="M160.5,187.8l12.2,209.4c0,0,33.2,20,84.3,25.1l-5.1-295.9c0,0-27.2-1-33.5-21.7l-47,14.4
	C171.5,119.2,212.1,195.7,160.5,187.8z"/>
<path class="st2" d="M190.7,221.6l4.7,184.9c-16.8-5.2-23.3-11.3-23.3-11.3l-4.5-177.8l0,0l0,0c-0.4-14.6-7-28.1-7-28.1
	S190,192.6,190.7,221.6z"/>
<path class="st1" d="M343.4,187.8l-12.2,209.4c0,0-33.2,20-84.3,25.2l5.1-296c0,0,27.2-1,33.5-21.7l47,14.4
	C332.5,119.2,291.8,195.7,343.4,187.8z"/>
<polygon class="st3" points="220,104 252.3,132.8 285.9,104.7 "/>
<path class="st4" d="M304.8,207.6l-31.5,5.5l1-9l31.5-5.5"/>
<path class="st4" d="M253.4,165.7c-0.3,0-0.7,0-1-0.1c-0.3-0.1-0.6-0.2-1-0.3s-0.6-0.3-0.9-0.5c-0.3-0.2-0.5-0.4-0.8-0.7
	c-0.2-0.3-0.4-0.5-0.6-0.8c-0.2-0.3-0.3-0.6-0.5-0.9c-0.1-0.3-0.2-0.7-0.3-1s-0.1-0.7-0.1-1.1c0-0.4,0-0.7,0.1-1.1
	c0.1-0.3,0.2-0.7,0.3-1s0.3-0.6,0.5-0.9s0.4-0.6,0.6-0.8c0.2-0.2,0.5-0.5,0.8-0.7s0.6-0.4,0.9-0.5c0.3-0.1,0.6-0.2,1-0.3
	c1.7-0.4,3.4,0.2,4.6,1.5c0.2,0.3,0.4,0.5,0.6,0.8s0.3,0.6,0.5,0.9c0.1,0.3,0.2,0.7,0.3,1c0.1,0.3,0.1,0.7,0.1,1.1
	c0,0.3,0,0.7-0.1,1.1c-0.1,0.3-0.2,0.7-0.3,1c-0.1,0.3-0.3,0.6-0.5,0.9s-0.4,0.6-0.6,0.8C256.1,165.1,254.7,165.7,253.4,165.7z"/>
<path class="st4" d="M253.4,211.2c-0.3,0-0.7,0-1-0.1s-0.6-0.2-1-0.3s-0.6-0.3-0.9-0.5c-0.3-0.2-0.5-0.4-0.8-0.7
	c-0.2-0.3-0.4-0.5-0.6-0.8c-0.2-0.3-0.3-0.6-0.5-0.9c-0.1-0.3-0.2-0.7-0.3-1s-0.1-0.7-0.1-1.1c0-0.4,0-0.7,0.1-1.1
	c0.1-0.3,0.2-0.7,0.3-1s0.3-0.6,0.5-0.9c0.2-0.3,0.4-0.6,0.6-0.8c0.2-0.2,0.5-0.5,0.8-0.7s0.6-0.4,0.9-0.5s0.6-0.2,1-0.3
	c1.7-0.4,3.4,0.2,4.6,1.5c0.2,0.3,0.4,0.5,0.6,0.8s0.3,0.6,0.5,0.9c0.1,0.3,0.2,0.7,0.3,1c0.1,0.3,0.1,0.7,0.1,1.1
	c0,0.3,0,0.7-0.1,1.1c-0.1,0.3-0.2,0.7-0.3,1c-0.1,0.3-0.3,0.6-0.5,0.9c-0.2,0.3-0.4,0.6-0.6,0.8
	C256.1,210.6,254.7,211.2,253.4,211.2z"/>
<path class="st4" d="M253.4,260.2c-0.3,0-0.7,0-1-0.1s-0.6-0.2-1-0.3c-0.3-0.1-0.6-0.3-0.9-0.5c-0.3-0.2-0.5-0.4-0.8-0.7
	c-0.2-0.3-0.4-0.5-0.6-0.8c-0.2-0.3-0.3-0.6-0.5-0.9c-0.1-0.3-0.2-0.7-0.3-1s-0.1-0.7-0.1-1.1c0-0.4,0-0.7,0.1-1.1
	c0.1-0.3,0.2-0.7,0.3-1s0.3-0.6,0.5-0.9c0.2-0.3,0.4-0.6,0.6-0.8c0.2-0.2,0.5-0.5,0.8-0.7s0.6-0.4,0.9-0.5s0.6-0.2,1-0.3
	c1.7-0.4,3.4,0.2,4.6,1.5c0.2,0.3,0.4,0.5,0.6,0.8s0.3,0.6,0.5,0.9c0.1,0.3,0.2,0.7,0.3,1c0.1,0.3,0.1,0.7,0.1,1.1
	c0,0.3,0,0.7-0.1,1.1c-0.1,0.3-0.2,0.7-0.3,1c-0.1,0.3-0.3,0.6-0.5,0.9s-0.4,0.6-0.6,0.8C256.1,259.7,254.7,260.2,253.4,260.2z"/>
<path class="st4" d="M253.4,303.3c-0.3,0-0.7,0-1-0.1s-0.6-0.2-1-0.3s-0.6-0.3-0.9-0.5c-0.3-0.2-0.5-0.4-0.8-0.7
	c-0.2-0.3-0.4-0.5-0.6-0.8c-0.2-0.3-0.3-0.6-0.5-0.9c-0.1-0.3-0.2-0.7-0.3-1s-0.1-0.7-0.1-1.1s0-0.7,0.1-1.1c0.1-0.3,0.2-0.7,0.3-1
	s0.3-0.6,0.5-0.9s0.4-0.6,0.6-0.8c0.2-0.2,0.5-0.5,0.8-0.7s0.6-0.4,0.9-0.5c0.3-0.1,0.6-0.2,1-0.3c1.7-0.4,3.4,0.2,4.6,1.5
	c0.2,0.3,0.4,0.5,0.6,0.8s0.3,0.6,0.5,0.9c0.1,0.3,0.2,0.7,0.3,1c0.1,0.3,0.1,0.7,0.1,1.1c0,0.3,0,0.7-0.1,1.1
	c-0.1,0.3-0.2,0.7-0.3,1c-0.1,0.3-0.3,0.6-0.5,0.9s-0.4,0.6-0.6,0.8C256.1,302.8,254.7,303.3,253.4,303.3z"/>
<path class="st4" d="M253,346.5c-0.3,0-0.7,0-1-0.1s-0.6-0.2-1-0.3s-0.6-0.3-0.9-0.5c-0.3-0.2-0.5-0.4-0.8-0.7
	c-0.2-0.3-0.4-0.5-0.6-0.8c-0.2-0.3-0.3-0.6-0.5-0.9c-0.1-0.3-0.2-0.7-0.3-1s-0.1-0.7-0.1-1.1s0-0.7,0.1-1.1c0.1-0.3,0.2-0.7,0.3-1
	s0.3-0.6,0.5-0.9s0.4-0.6,0.6-0.8c0.2-0.2,0.5-0.5,0.8-0.7s0.6-0.4,0.9-0.5s0.6-0.2,1-0.3c1.7-0.4,3.4,0.2,4.6,1.5
	c0.2,0.3,0.4,0.5,0.6,0.8s0.3,0.6,0.5,0.9c0.1,0.3,0.2,0.7,0.3,1c0.1,0.3,0.1,0.7,0.1,1.1c0,0.3,0,0.7-0.1,1.1
	c-0.1,0.3-0.2,0.7-0.3,1c-0.1,0.3-0.3,0.6-0.5,0.9s-0.4,0.6-0.6,0.8C255.7,345.9,254.3,346.5,253,346.5z"/>
<path class="st5" d="M218.5,93.3c0,0,1.1-1.6,4-2.5c0,0,34.5-2.5,58.6,0c0,0,3.9,0.2,4.8,2.5v11.4h-67.4V93.3z"/>
<path class="st4" d="M218.5,104.7V93.3c0,0,10.4,20.6,28.5,24.8c0,0,4,1.4,5.2,5.6l-0.2,9C252,132.8,223.1,131.3,218.5,104.7z"/>
<path class="st4" d="M212.8,24.1"/>
<path class="st4" d="M285.9,104.7V93.3c0,0-10.4,20.6-28.5,24.8c0,0-4,1.4-5.2,5.6l0.2,9C252.3,132.8,281.2,131.3,285.9,104.7z"/>
<path class="st3" d="M287.8,14.9"/>
</svg>
